<?xml version="1.0" encoding="UTF-8" standalone="no" ?>
<!DOCTYPE svg PUBLIC "-//W3C//DTD SVG 1.1//EN" "http://www.w3.org/Graphics/SVG/1.1/DTD/svg11.dtd">
<svg xmlns="http://www.w3.org/2000/svg" xmlns:xlink="http://www.w3.org/1999/xlink" version="1.1" width="640" height="640" viewBox="0 0 640 640" xml:space="preserve">
<desc>Created with Fabric.js 5.3.0</desc>
<defs>
</defs>
<g transform="matrix(1 0 0 1 320.2574416734 320.5148833467)" id="dMrfbS1sHp6hJuIXdHYX6"  >
<path style="stroke: rgb(145,56,17); stroke-width: 0; stroke-dasharray: none; stroke-linecap: butt; stroke-dashoffset: 0; stroke-linejoin: miter; stroke-miterlimit: 4; fill: rgb(1,38,14); fill-rule: nonzero; opacity: 1;"  transform=" translate(-320.0000007234, -320.0000007234)" d="M 0 0 L 640 0 L 640 640 L 0 640 z" stroke-linecap="round" />
</g>
<g transform="matrix(0.1773678509 0.1773678509 -1.2162366921 1.2162366921 365.2463689447 272.9552298024)" id="g-iyCO7e7KqNL0t7m1RwI"  >
<path style="stroke: rgb(115,64,20); stroke-width: 0; stroke-dasharray: none; stroke-linecap: butt; stroke-dashoffset: 0; stroke-linejoin: miter; stroke-miterlimit: 4; fill: rgb(236,155,3); fill-rule: nonzero; opacity: 1;"  transform=" translate(0, 0)" d="M -69.76669 -69.76669 L 69.7667 -69.76669 L 69.7667 69.7667 L -69.76669 69.7667 z" stroke-linecap="round" />
</g>
<g transform="matrix(1 0 0 1 195.3982300885 417.5703942076)" id="9-szwTNA3-3G_H9HMZN5k"  >
<path style="stroke: rgb(0,0,0); stroke-width: 1; stroke-dasharray: none; stroke-linecap: butt; stroke-dashoffset: 0; stroke-linejoin: miter; stroke-miterlimit: 4; fill: rgb(255,255,255); fill-opacity: 0; fill-rule: nonzero; opacity: 1;"  transform=" translate(0, 0)" d="M 0 0" stroke-linecap="round" />
</g>
<g transform="matrix(1 0 0 1 231.4400643604 400)" id="ZoVvvttnQxCII5X8zomPy"  >
<path style="stroke: rgb(0,0,0); stroke-width: 1; stroke-dasharray: none; stroke-linecap: butt; stroke-dashoffset: 0; stroke-linejoin: miter; stroke-miterlimit: 4; fill: rgb(255,255,255); fill-opacity: 0; fill-rule: nonzero; opacity: 1;"  transform=" translate(0, 0)" d="M 0 0" stroke-linecap="round" />
</g>
<g transform="matrix(1 0 0 1 248.9460981496 350.6355591311)" id="MX6b32bW0i-U1ewKV0RNY"  >
<path style="stroke: rgb(0,0,0); stroke-width: 1; stroke-dasharray: none; stroke-linecap: butt; stroke-dashoffset: 0; stroke-linejoin: miter; stroke-miterlimit: 4; fill: rgb(255,255,255); fill-opacity: 0; fill-rule: nonzero; opacity: 1;"  transform=" translate(0, 0)" d="M 0 0" stroke-linecap="round" />
</g>
<g transform="matrix(1 0 0 1 249.9758648431 350.6355591311)" id="JR58Cm2FfNRqT1fU8nV0Y"  >
<path style="stroke: rgb(0,0,0); stroke-width: 1; stroke-dasharray: none; stroke-linecap: butt; stroke-dashoffset: 0; stroke-linejoin: miter; stroke-miterlimit: 4; fill: rgb(255,255,255); fill-opacity: 0; fill-rule: nonzero; opacity: 1;"  transform=" translate(0, 0)" d="M 0 0" stroke-linecap="round" />
</g>
<g transform="matrix(1.202081528 1.202081528 -1.406286806 1.406286806 224.6188548659 416.2141401119)" id="Cpd693CfaxGICtQvY0JYm"  >
<path style="stroke: rgb(145,56,17); stroke-width: 17; stroke-dasharray: none; stroke-linecap: butt; stroke-dashoffset: 0; stroke-linejoin: miter; stroke-miterlimit: 4; fill: rgb(236,155,3); fill-rule: nonzero; opacity: 1;"  transform=" translate(-40, -40)" d="M 76.64893 0 C 78.49967 0 80 1.50032 80 3.35107 L 80 46.41553 C 80 48.99831 78.77265 51.4274 76.69345 52.95961 L 40 80 L 3.3065500000000014 52.95961 C 1.2273500000000013 51.4274 1.3322676295501878e-15 48.99831 1.3322676295501878e-15 46.41553 L 1.3322676295501878e-15 3.35107 C 1.3322676295501878e-15 1.50032 1.5003300000000013 0 3.3510700000000013 0 z" stroke-linecap="round" />
</g>
<g transform="matrix(-0.214583426 0.214583426 -0.9298615126 -0.9298615126 458.1482193067 180.0187857155)" id="2upyG_T01jOE0dR1tG4I-"  >
<path style="stroke: rgb(253,121,242); stroke-width: 0; stroke-dasharray: none; stroke-linecap: butt; stroke-dashoffset: 0; stroke-linejoin: miter; stroke-miterlimit: 4; fill: rgb(145,56,17); fill-rule: nonzero; opacity: 1;"  transform=" translate(0, 0)" d="M -49.4288 -49.42373 C -49.4288 -49.42653 -49.418960000000006 -49.4288 -49.40683 -49.4288 L 49.42881 -49.4288 L 49.42881 49.42373 L 49.42881 49.42373 C 49.42881 49.42653 49.41897 49.4288 49.406839999999995 49.4288 L -49.4288 49.4288 z" stroke-linecap="round" />
</g>
<g transform="matrix(1 0 0 1 416.7980691874 117.1419676658)" id="ZbKVF6HqfqJqdITpZrafp"  >
<path style="stroke: rgb(1,38,14); stroke-width: 1; stroke-dasharray: none; stroke-linecap: butt; stroke-dashoffset: 0; stroke-linejoin: miter; stroke-miterlimit: 4; fill: rgb(255,255,255); fill-opacity: 0; fill-rule: nonzero; opacity: 1;"  transform=" translate(0, 0)" d="M 0 0" stroke-linecap="round" />
</g>
<g transform="matrix(1.0993513308 0 0 1.0993513308 413 135)" id="3451devexI3SkyrgUQLvD"  >
<path style="stroke: rgb(1,38,14); stroke-width: 0; stroke-dasharray: none; stroke-linecap: butt; stroke-dashoffset: 0; stroke-linejoin: miter; stroke-miterlimit: 4; fill: rgb(145,56,17); fill-rule: nonzero; opacity: 1;"  transform=" translate(0, 0)" d="M 0 -13.64441 C 7.53171 -13.64441 13.64441 -7.53171 13.64441 0 C 13.64441 7.53171 7.53171 13.64441 0 13.64441 C -7.53171 13.64441 -13.64441 7.53171 -13.64441 0 C -13.64441 -7.53171 -7.53171 -13.64441 0 -13.64441 z" stroke-linecap="round" />
</g>
<g transform="matrix(1.0993513308 0 0 1.0993513308 503.4735854116 224.9999997085)" id="bjJZ3V3GgIIpjD3lWfMc9"  >
<path style="stroke: rgb(1,38,14); stroke-width: 0; stroke-dasharray: none; stroke-linecap: butt; stroke-dashoffset: 0; stroke-linejoin: miter; stroke-miterlimit: 4; fill: rgb(145,56,17); fill-rule: nonzero; opacity: 1;"  transform=" translate(0, 0)" d="M 0 -13.64441 C 7.53171 -13.64441 13.64441 -7.53171 13.64441 0 C 13.64441 7.53171 7.53171 13.64441 0 13.64441 C -7.53171 13.64441 -13.64441 7.53171 -13.64441 0 C -13.64441 -7.53171 -7.53171 -13.64441 0 -13.64441 z" stroke-linecap="round" />
</g>
</svg>